<?xml version="1.0" standalone="no"?>
<!DOCTYPE svg PUBLIC "-//W3C//DTD SVG 20010904//EN"
 "http://www.w3.org/TR/2001/REC-SVG-20010904/DTD/svg10.dtd">
<svg version="1.0" xmlns="http://www.w3.org/2000/svg"
 width="529.000000pt" height="668.000000pt" viewBox="0 0 529.000000 668.000000"
 preserveAspectRatio="xMidYMid meet">

<g transform="translate(0.000000,668.000000) scale(0.100000,-0.100000)"
fill="#000000" stroke="none">
<path d="M2383 6120 c-12 -5 -49 -44 -83 -87 -34 -43 -132 -152 -218 -243 -87
-91 -189 -201 -227 -245 -77 -88 -132 -148 -245 -270 -102 -109 -197 -218
-253 -290 -67 -87 -78 -139 -81 -370 -2 -104 -7 -229 -11 -276 l-8 -86 224
-148 c123 -81 227 -152 231 -158 3 -6 4 -15 2 -22 -7 -17 55 -76 86 -83 26 -6
31 -27 7 -33 -20 -5 -18 -6 11 -13 36 -9 36 -7 21 -94 -8 -43 -14 -60 -20 -51
-6 9 -9 0 -9 -28 0 -33 4 -43 20 -48 11 -3 19 -11 17 -17 -1 -6 3 -12 10 -15
8 -3 10 16 6 74 -4 63 -3 76 7 66 8 -7 15 -49 18 -108 8 -156 22 -119 20 52
-4 225 30 534 63 567 5 6 9 29 9 53 0 24 5 43 10 43 6 0 10 7 10 15 0 8 5 15
10 15 6 0 10 7 10 15 0 8 5 15 11 15 5 0 7 5 4 10 -3 6 -1 10 4 10 6 0 11 14
11 31 0 18 8 38 18 46 9 8 11 11 3 7 -11 -6 -13 -3 -6 12 4 10 8 27 9 37 0 9
4 17 8 17 4 0 8 6 8 14 0 7 7 19 15 26 8 7 15 19 15 28 0 15 18 33 55 54 18
10 19 10 6 -5 -11 -15 -11 -17 1 -17 20 0 62 46 53 59 -3 6 0 11 8 11 7 0 19
11 26 24 21 38 90 61 106 35 4 -6 13 -8 20 -5 8 3 15 0 18 -7 3 -9 10 -9 28
-1 15 7 49 8 91 4 37 -4 86 -4 108 0 22 4 40 5 40 2 0 -2 6 1 14 7 7 6 21 9
30 5 10 -4 18 0 22 10 7 17 34 22 34 6 0 -5 8 -10 17 -10 9 0 13 3 10 7 -4 3
2 13 13 20 18 12 28 12 77 -2 54 -16 94 -36 121 -62 7 -7 20 -13 27 -13 8 0
19 -9 25 -20 6 -11 15 -18 20 -15 23 14 49 -18 70 -87 13 -40 26 -77 30 -83 4
-5 17 -27 29 -47 22 -41 13 -52 -12 -15 -12 16 -16 18 -16 6 -1 -8 10 -30 23
-47 13 -18 31 -53 41 -77 9 -25 21 -45 26 -45 6 0 7 -4 4 -10 -3 -5 -2 -10 4
-10 6 0 13 -17 16 -37 4 -21 13 -56 22 -78 10 -28 18 -111 25 -275 5 -129 13
-244 18 -255 7 -16 9 -14 9 14 1 51 22 24 24 -30 2 -41 21 -79 39 -79 14 0 9
27 -18 105 -17 50 -24 85 -19 103 l7 27 18 -25 18 -24 5 25 c2 13 5 -3 7 -36
l3 -60 7 44 c4 25 12 47 18 49 7 2 12 13 12 23 0 11 5 17 10 14 6 -3 10 3 10
14 0 12 6 21 13 21 9 0 8 3 -2 9 -11 7 -11 10 0 17 8 5 20 9 27 10 8 2 15 4
15 6 1 2 15 18 31 35 27 31 30 39 33 127 1 52 -1 97 -5 100 -5 3 -6 21 -4 40
2 20 8 33 13 30 13 -8 11 54 -3 79 -17 30 -19 49 -7 63 5 7 9 31 7 54 -2 41 0
44 82 118 119 106 318 310 325 334 4 10 0 29 -9 42 -19 30 -181 169 -366 316
-80 63 -150 120 -157 126 -7 6 -133 105 -280 220 -147 114 -340 264 -428 333
-229 178 -263 204 -327 239 -63 35 -63 35 -95 22z m1227 -2084 c0 -7 -7 -19
-15 -26 -16 -13 -20 -3 -9 24 8 20 24 21 24 2z m-20 -66 c0 -11 -4 -20 -10
-20 -5 0 -10 2 -10 4 0 2 -3 11 -6 20 -4 11 -1 16 10 16 9 0 16 -8 16 -20z
m-167 -175 c-3 -9 -8 -14 -10 -11 -3 3 -2 9 2 15 9 16 15 13 8 -4z"/>
<path d="M1231 4835 c-1 -5 -20 -30 -42 -55 -23 -25 -53 -59 -68 -75 -14 -17
-56 -64 -93 -106 -42 -47 -68 -85 -68 -99 0 -15 17 -39 43 -64 63 -60 216
-162 226 -150 11 11 20 500 10 534 -4 14 -8 21 -8 15z"/>
<path d="M2165 4383 c-11 -3 -32 -14 -47 -24 -14 -11 -30 -19 -35 -19 -22 0
-73 -68 -82 -110 -14 -59 -14 -60 4 -60 11 0 15 -13 15 -53 0 -64 20 -97 59
-97 21 0 30 -6 34 -21 3 -11 15 -23 26 -26 12 -3 21 -10 21 -15 0 -6 37 -8 98
-5 93 5 161 18 210 41 34 15 92 107 92 144 0 23 7 35 29 48 l29 17 -32 35
c-54 60 -79 82 -91 82 -6 0 -17 12 -24 26 -7 16 -17 24 -26 20 -8 -3 -17 -1
-20 4 -3 6 -49 8 -105 5 -63 -3 -100 -1 -100 5 0 10 -20 11 -55 3z m140 -167
c11 -7 29 -16 40 -19 11 -2 -5 -5 -36 -6 -31 0 -72 -3 -90 -6 -19 -3 -27 -2
-19 1 8 4 18 13 23 20 4 7 14 11 21 8 8 -3 17 -1 21 5 8 14 17 14 40 -3z m30
4 c3 -5 1 -10 -4 -10 -6 0 -11 5 -11 10 0 6 2 10 4 10 3 0 8 -4 11 -10z m28
-64 c24 -19 12 -47 -16 -37 -18 6 -122 7 -122 1 0 -1 -7 -3 -16 -5 -9 -1 -26
-6 -38 -10 -34 -10 -16 18 27 43 43 25 136 29 165 8z m108 -94 c11 -29 5 -28
-16 4 -11 17 -12 25 -4 22 6 -2 16 -14 20 -26z m-91 4 c0 -3 -4 -8 -10 -11 -5
-3 -10 -1 -10 4 0 6 5 11 10 11 6 0 10 -2 10 -4z m-227 -43 c-7 -2 -19 -2 -25
0 -7 3 -2 5 12 5 14 0 19 -2 13 -5z m277 -3 c0 -5 -7 -7 -15 -4 -8 4 -15 8
-15 10 0 2 7 4 15 4 8 0 15 -4 15 -10z m47 4 c-3 -3 -12 -4 -19 -1 -8 3 -5 6
6 6 11 1 17 -2 13 -5z"/>
<path d="M2210 4140 c-8 -5 -10 -10 -5 -10 6 0 17 5 25 10 8 5 11 10 5 10 -5
0 -17 -5 -25 -10z"/>
<path d="M2781 4338 c-6 -10 -11 -27 -11 -39 0 -11 -11 -35 -25 -53 -14 -18
-25 -38 -25 -45 0 -7 -4 -9 -10 -6 -18 11 -10 -22 10 -40 11 -10 20 -26 20
-35 0 -10 7 -20 15 -24 8 -3 15 -13 15 -21 0 -12 6 -15 19 -10 16 5 18 2 14
-14 -4 -16 1 -22 22 -27 19 -5 23 -9 14 -15 -18 -11 -5 -22 48 -42 63 -25 141
-30 192 -14 l45 14 -54 6 c-95 11 -79 34 34 46 82 9 100 16 70 27 -10 4 -46
17 -79 30 -33 13 -84 28 -113 34 -28 7 -50 16 -46 21 3 5 -3 9 -12 9 -16 0
-16 1 2 15 40 30 122 12 178 -39 39 -37 75 -60 83 -53 5 6 -4 15 -67 68 -46
38 -90 51 -168 47 -51 -2 -67 -1 -53 6 12 5 21 17 21 26 0 12 11 20 34 24 41
8 130 -2 134 -15 2 -5 10 -9 18 -9 9 0 12 -4 9 -10 -3 -5 0 -7 8 -4 8 3 18 0
22 -5 9 -16 25 -3 25 20 0 15 -5 19 -19 14 -15 -4 -18 -1 -15 21 4 41 -16 84
-45 96 -14 7 -87 12 -162 13 -121 1 -138 -1 -148 -17z"/>
<path d="M3182 4275 c20 -11 25 -20 20 -37 -5 -21 -4 -22 13 -8 17 14 18 13
13 -5 -4 -15 0 -21 13 -22 25 -2 24 7 -4 48 -16 24 -31 35 -52 37 l-30 2 27
-15z"/>
<path d="M1217 4023 c1 -21 2 -48 2 -60 1 -13 6 -23 11 -23 11 0 14 78 4 104
-11 28 -19 17 -17 -21z"/>
<path d="M1271 4038 c-18 -30 -18 -98 0 -108 11 -7 15 5 17 61 2 38 2 69 0 69
-2 0 -9 -10 -17 -22z"/>
<path d="M2510 3778 c-29 -9 -32 -12 -16 -17 18 -7 18 -8 2 -14 -26 -10 -38
-8 -30 4 12 19 -48 0 -68 -21 -24 -25 -23 -37 5 -54 62 -39 296 -40 281 -1 -8
19 25 32 36 15 5 -7 33 -15 64 -18 47 -4 56 -2 56 12 0 48 -94 73 -155 42 -38
-20 -49 -20 -41 0 3 8 2 13 -3 10 -5 -3 -19 5 -32 18 -31 30 -56 36 -99 24z"/>
<path d="M3010 3592 c0 -4 5 -13 11 -19 7 -7 20 -29 30 -50 15 -34 17 -35 18
-13 1 28 -33 90 -49 90 -5 0 -10 -4 -10 -8z"/>
<path d="M2460 3542 c-8 -2 -40 -16 -70 -30 -30 -14 -69 -25 -87 -25 -22 1
-30 -3 -27 -12 3 -7 -4 -15 -15 -18 -23 -6 -29 8 -8 16 7 4 6 6 -4 6 -9 1 -20
-6 -23 -15 -3 -8 -10 -12 -16 -9 -5 3 -10 -1 -10 -9 0 -22 13 -27 78 -31 31
-2 71 -5 88 -7 23 -3 30 0 31 14 2 15 -2 16 -20 7 -19 -9 -18 -7 3 10 34 27
92 32 305 29 148 -2 186 -6 214 -20 40 -21 62 -23 79 -6 22 22 14 41 -13 34
-17 -4 -46 3 -91 24 -74 35 -105 36 -53 1 l34 -22 -35 6 c-19 4 -46 14 -59 23
-18 10 -26 12 -29 4 -2 -7 -10 -12 -18 -12 -9 0 -12 5 -9 10 3 6 0 10 -7 10
-10 0 -9 3 2 9 8 6 18 7 22 5 4 -3 8 -1 8 4 0 9 -243 13 -270 4z"/>
<path d="M2758 3533 c7 -3 16 -2 19 1 4 3 -2 6 -13 5 -11 0 -14 -3 -6 -6z"/>
<path d="M2450 3417 c-28 -8 -31 -11 -15 -15 36 -8 47 -23 28 -38 -29 -21 -2
-37 69 -42 35 -2 67 -8 73 -13 12 -12 52 -11 60 1 3 6 15 10 25 10 20 0 36 17
26 27 -7 7 -151 34 -188 35 -15 1 -25 5 -22 10 3 4 -2 11 -11 14 -13 6 -14 8
-3 15 17 11 2 10 -42 -4z"/>
<path d="M1864 3410 c-30 -12 -40 -31 -21 -41 9 -5 13 -17 10 -28 -3 -12 3
-26 16 -37 12 -10 21 -23 21 -29 0 -5 10 -21 21 -35 l20 -25 -6 50 c-10 81
-26 155 -33 154 -4 0 -17 -4 -28 -9z"/>
<path d="M3357 3317 c-4 -29 -10 -68 -13 -85 -6 -28 -4 -31 10 -26 10 4 15 12
13 18 -3 7 5 32 17 57 l21 44 -21 23 -21 22 -6 -53z"/>
<path d="M2145 3280 c-1 -22 3 -40 7 -40 4 0 8 -18 8 -40 0 -43 -23 -57 -33
-19 -3 11 -15 23 -26 26 -12 3 -21 12 -21 19 0 8 -7 14 -15 14 -13 0 -35 -55
-35 -87 0 -6 -13 -20 -30 -30 -29 -17 -42 -53 -19 -53 7 0 10 -15 7 -39 -2
-28 0 -37 9 -34 8 3 13 -3 13 -16 0 -20 22 -97 40 -136 5 -11 12 -31 15 -44 6
-18 9 -20 16 -10 6 10 9 8 9 -9 0 -26 53 -82 76 -82 8 0 14 -5 14 -11 0 -6 8
-8 18 -4 11 3 29 -3 43 -13 13 -11 41 -22 62 -26 24 -5 37 -12 37 -23 0 -13 3
-13 15 -3 9 7 14 19 11 27 -4 8 2 13 16 13 17 0 18 -2 8 -15 -16 -19 -9 -19
33 1 24 12 42 13 67 7 35 -9 82 -3 251 35 47 10 92 23 101 28 25 15 82 69 94
90 6 10 16 20 23 20 6 1 16 2 21 3 6 0 10 8 10 16 0 9 9 15 25 15 39 0 125 49
125 70 0 28 -13 31 -51 12 -39 -20 -105 -21 -189 -4 -30 6 -69 13 -87 16 -17
2 -37 7 -43 11 -6 4 -33 9 -60 11 -27 3 -67 11 -88 18 -27 10 -44 11 -57 4
-13 -8 -16 -7 -11 1 5 8 0 8 -16 2 -15 -5 -31 -5 -41 0 -11 7 -17 6 -17 0 0
-12 -36 -2 -78 21 -18 10 -37 16 -42 13 -5 -3 -24 4 -42 15 -18 11 -41 23 -50
26 -10 4 -18 9 -18 13 0 3 -20 15 -45 26 l-44 19 6 46 c3 25 12 50 19 56 17
14 17 25 2 59 -18 40 -43 32 -43 -15z"/>
<path d="M2360 3302 c0 -26 11 -34 27 -21 10 9 10 15 2 25 -16 19 -29 17 -29
-4z"/>
<path d="M3307 3100 c-3 -11 -1 -20 4 -20 5 0 9 9 9 20 0 11 -2 20 -4 20 -2 0
-6 -9 -9 -20z"/>
<path d="M1954 2714 c-22 -26 -54 -65 -73 -86 -19 -22 -37 -54 -40 -72 -5 -26
-21 -46 -76 -89 -79 -63 -150 -90 -464 -172 -285 -74 -615 -178 -736 -230 -44
-19 -89 -35 -100 -35 -45 0 -80 -37 -150 -161 -39 -68 -86 -159 -105 -201 -19
-43 -40 -78 -45 -78 -15 0 -76 65 -114 122 -17 26 -36 50 -41 53 -7 4 -10
-299 -10 -879 l0 -886 2646 0 2646 0 -5 173 c-3 94 -9 187 -13 206 -5 24 -3
32 5 27 8 -5 11 49 10 206 l-1 213 -25 -100 c-27 -102 -30 -112 -37 -104 -10
10 -97 341 -91 347 3 4 40 8 81 10 l74 4 0 33 c0 18 -6 36 -12 39 -10 5 -10 7
0 12 17 8 16 64 -2 64 -8 0 -23 3 -33 6 -17 5 -17 5 1 -10 16 -13 17 -18 6
-31 -16 -19 -31 -19 -24 0 8 20 -62 84 -85 78 -10 -2 -24 3 -31 12 -19 23 4
37 38 24 14 -5 33 -7 44 -3 10 3 25 1 32 -5 10 -8 18 -6 31 9 10 11 15 23 11
27 -4 4 -10 3 -14 -2 -11 -15 -39 -17 -63 -5 -14 8 -24 8 -33 1 -9 -7 -16 -7
-24 1 -16 16 -42 2 -42 -24 0 -39 -17 -5 -33 67 -9 39 -19 126 -22 195 -10
213 -46 288 -213 453 -69 67 -107 97 -123 97 -13 0 -62 23 -109 50 -162 96
-262 134 -400 155 -149 22 -509 119 -617 167 -24 10 -48 18 -54 18 -6 0 -41
16 -78 35 -63 34 -68 38 -86 91 -10 30 -22 57 -27 60 -4 3 -8 -25 -8 -63 0
-88 -31 -139 -138 -222 -84 -66 -271 -127 -421 -138 -70 -5 -84 -9 -89 -25 -4
-17 -13 -18 -126 -12 -81 4 -124 10 -130 19 -7 10 -15 10 -33 2 -46 -21 -249
50 -301 106 -28 30 -102 257 -109 334 -4 47 -1 75 12 109 9 25 15 47 12 50 -3
3 -22 -16 -43 -42z m646 -754 c0 -5 -2 -10 -4 -10 -3 0 -8 5 -11 10 -3 6 -1
10 4 10 6 0 11 -4 11 -10z m100 0 c0 -5 -2 -10 -4 -10 -3 0 -8 5 -11 10 -3 6
-1 10 4 10 6 0 11 -4 11 -10z m2414 -816 c3 -9 6 -25 6 -37 -1 -22 -1 -22 -15
-3 -17 22 -20 56 -6 56 5 0 12 -7 15 -16z m86 -39 c0 -9 -9 -15 -22 -15 -21 0
-21 0 -2 15 24 18 24 18 24 0z"/>
<path d="M2460 2630 c0 -5 5 -10 10 -10 6 0 10 5 10 10 0 6 -4 10 -10 10 -5 0
-10 -4 -10 -10z"/>
<path d="M2370 2606 c0 -9 7 -16 16 -16 9 0 14 5 12 12 -6 18 -28 21 -28 4z"/>
<path d="M2285 2590 c3 -5 10 -10 16 -10 5 0 9 5 9 10 0 6 -7 10 -16 10 -8 0
-12 -4 -9 -10z"/>
<path d="M2180 2527 c0 -3 12 -12 26 -22 15 -9 23 -12 20 -6 -7 11 -46 35 -46
28z"/>
<path d="M2553 2443 c-20 -7 -15 -23 5 -23 11 0 27 -9 37 -20 22 -24 68 -23
73 1 4 24 -80 55 -115 42z"/>
<path d="M2470 2200 c-12 -8 -9 -10 12 -10 15 0 30 5 33 10 8 13 -25 13 -45 0z"/>
<path d="M5263 1181 c-10 -15 -9 -20 2 -25 18 -7 28 10 18 29 -7 12 -10 12
-20 -4z"/>
</g>
</svg>
